<?xml version="1.0" encoding="utf-8"?>
<!-- Generator: Adobe Illustrator 26.5.0, SVG Export Plug-In . SVG Version: 6.00 Build 0)  -->
<svg version="1.1" id="Capa_1" xmlns="http://www.w3.org/2000/svg" xmlns:xlink="http://www.w3.org/1999/xlink" x="0px" y="0px"
	 viewBox="0 0 630.33 968.73" style="enable-background:new 0 0 630.33 968.73;" xml:space="preserve">
<style type="text/css">
	.st0{fill:#FFFFFF;}
</style>
<g>
	<g>
		<path class="st0" d="M361.17,455.34c6.28-51.41-21.16-89.15-82.32-113.22l-78.23-28.31l-25.39-10.25
			C97.67,270.53,61.77,221.79,67.51,157.35c2.46-31.67,13.65-59.52,33.58-83.55c19.93-24.02,46.21-42.52,78.84-55.5
			C212.56,5.33,247.17-0.74,283.76,0.07c35.22,0.82,66.69,8.95,94.41,24.37c27.71,15.43,48.46,36.52,62.26,63.28
			c13.79,26.76,19.18,56.93,16.18,90.52h-50.38c3.82-40.54-5.67-72.99-28.46-97.36c-22.8-24.37-54.95-37.1-96.45-38.21
			c-43.15-0.54-80.07,9.38-110.79,29.75c-30.72,20.38-48.27,48.22-52.63,83.51c-3.55,28.18,4.71,52.18,24.78,72.01
			c20.07,19.84,54.95,37.12,104.65,51.87c63.34,20.21,107.37,44.37,132.09,72.49c24.71,28.13,35.43,61.99,32.15,101.57
			c-3.01,32.77-14.48,61.23-34.4,85.4c-19.93,24.16-46.56,42.67-79.87,55.5c-33.32,12.83-69.08,18.84-107.31,18.02
			c-37.96-0.27-72.16-8.06-102.6-23.35c-30.45-15.29-53.24-36.25-68.4-62.87c-15.15-26.62-21.23-57.4-18.23-92.36h49.97
			c-4.1,41.63,7.03,74.7,33.38,99.21c26.35,24.51,62.46,37.04,108.33,37.58c45.87,0.55,84.44-9.84,115.7-31.17
			C339.39,518.52,357.08,490.35,361.17,455.34z"/>
	</g>
	<g>
		<path class="st0" d="M337.08,696.77l232.64-324.38h60.62L354.69,746.74l-38.5,221.99h-49.97l39.73-227.31L162.6,372.39h56.11
			L337.08,696.77z"/>
	</g>
</g>
</svg>
